<?xml version="1.0" encoding="UTF-8" standalone="no"?>
<!-- Created with Inkscape (http://www.inkscape.org/) -->

<svg
   xmlns:dc="http://purl.org/dc/elements/1.1/"
   xmlns:cc="http://creativecommons.org/ns#"
   xmlns:rdf="http://www.w3.org/1999/02/22-rdf-syntax-ns#"
   xmlns:svg="http://www.w3.org/2000/svg"
   xmlns="http://www.w3.org/2000/svg"
   xmlns:sodipodi="http://sodipodi.sourceforge.net/DTD/sodipodi-0.dtd"
   xmlns:inkscape="http://www.inkscape.org/namespaces/inkscape"
   width="56.444443mm"
   height="84.666672mm"
   viewBox="0 0 199.99999 300.00002"
   id="svg2"
   version="1.1"
   inkscape:version="0.91 r"
   sodipodi:docname="logo.svg">
  <defs
     id="defs4" />
  <sodipodi:namedview
     id="base"
     pagecolor="#ffffff"
     bordercolor="#666666"
     borderopacity="1.0"
     inkscape:pageopacity="0.0"
     inkscape:pageshadow="2"
     inkscape:zoom="0.35"
     inkscape:cx="841.62132"
     inkscape:cy="170.78262"
     inkscape:document-units="px"
     inkscape:current-layer="layer1"
     showgrid="false"
     fit-margin-top="0"
     fit-margin-left="0"
     fit-margin-right="0"
     fit-margin-bottom="0"
     inkscape:window-width="1920"
     inkscape:window-height="1004"
     inkscape:window-x="1920"
     inkscape:window-y="25"
     inkscape:window-maximized="1" />
  <metadata
     id="metadata7">
    <rdf:RDF>
      <cc:Work
         rdf:about="">
        <dc:format>image/svg+xml</dc:format>
        <dc:type
           rdf:resource="http://purl.org/dc/dcmitype/StillImage" />
        <dc:title></dc:title>
      </cc:Work>
    </rdf:RDF>
  </metadata>
  <g
     inkscape:label="Layer 1"
     inkscape:groupmode="layer"
     id="layer1"
     transform="translate(-135.91505,-743.08959)">
    <g
       id="g4186"
       transform="matrix(0.39588343,0,0,0.40076397,82.108533,625.05687)">
      <path
         inkscape:connector-curvature="0"
         id="ellipse4157"
         d="m 205.10059,294.5193 a 69.184921,420.81442 0 0 0 -69.18554,420.81446 69.184921,420.81442 0 0 0 23.40234,314.98634 291.52872,69.184921 0 0 0 89.62109,10.207 69.184921,420.81442 0 0 0 0.3125,-1.7246 291.52872,69.184921 0 0 0 100.33594,4.2871 291.52872,69.184921 0 0 0 291.52735,-69.18553 291.52872,69.184921 0 0 0 -291.52735,-69.1836 291.52872,69.184921 0 0 0 -83.00976,2.92579 69.184921,420.81442 0 0 0 7.70703,-192.3125 69.184921,420.81442 0 0 0 -69.1836,-420.81446 z"
         style="opacity:1;fill:#61dafb;fill-opacity:1;stroke:none;stroke-width:40;stroke-linecap:round;stroke-linejoin:miter;stroke-miterlimit:4;stroke-dasharray:none;stroke-opacity:1" />
      <path
         inkscape:connector-curvature="0"
         id="ellipse4155"
         d="m 205.10059,294.53373 a 69.184921,420.81442 0 0 0 -69.18554,420.81446 69.184921,420.81442 0 0 0 23.40234,314.98631 291.52872,69.184921 0 0 0 89.62109,10.2071 69.184921,420.81442 0 0 0 25.34571,-325.19341 69.184921,420.81442 0 0 0 -69.1836,-420.81446 z"
         style="opacity:1;fill:#9bb9c1;fill-opacity:1;stroke:none;stroke-width:40;stroke-linecap:round;stroke-linejoin:miter;stroke-miterlimit:4;stroke-dasharray:none;stroke-opacity:1" />
    </g>
  </g>
</svg>
